# xmcd
#
# Track frame offsets:
#        150
#        18662
#        30957
#        51157
#        70277
#        91062
#        110800
#        124442
#        140075
#        155572
#        166025
#        182200
#        197162
#        212775
#        235667
#
# Disc length: 3354 seconds
#
# Revision: 0
# Processed by: cddbd v1.5.1PL0 Copyright (c) Steve Scherf et al.
# Submitted via: ExactAudioCopy v0.95a5
#
DISCID=d60d180f
DTITLE=Various Artist - TV-CF  MUSIC FACTORY
DYEAR=1900
DGENRE=Other
TTITLE0=Gonna Make You Sweat (Everybody Dance Now)
TTITLE1=We Are In Love
TTITLE2=Step By Step
TTITLE3=I Feel The Earth Move
TTITLE4=Samba Pa Ti
TTITLE5=Pukar-Calling You
TTITLE6=Who Likes JAZZ
TTITLE7=Dust In The Wind
TTITLE8=I'm A Fool To Want You
TTITLE9=Ces Moments La
TTITLE10=Trouble Again
TTITLE11=Begin The Beguine
TTITLE12=If You Don't Know Me By Now
TTITLE13=Europe
TTITLE14=Quel Bonheur
EXTD=
EXTT0=
EXTT1=
EXTT2=
EXTT3=
EXTT4=
EXTT5=
EXTT6=
EXTT7=
EXTT8=
EXTT9=
EXTT10=
EXTT11=
EXTT12=
EXTT13=
EXTT14=
PLAYORDER=
